<svg width="22" height="21" viewBox="0 0 22 21" fill="none" xmlns="http://www.w3.org/2000/svg">
<path fill-rule="evenodd" clip-rule="evenodd" d="M5.30404 2.30128C5.52398 2.26744 5.75575 2.25 6 2.25H15C15.2445 2.25 15.4468 2.2598 15.6267 2.28979C15.6389 2.29182 15.6511 2.29354 15.6634 2.29497C16.7851 2.42541 17.6691 2.89822 18.2747 3.59999C18.8817 4.30336 19.25 5.2847 19.25 6.5V7.19995H17.92C17.1624 7.19995 16.4608 7.49802 15.9492 8.01987C15.3803 8.57901 15.0522 9.38448 15.1329 10.2466C15.141 10.3418 15.154 10.4351 15.1714 10.5263C15.2019 10.6855 15.2463 10.8384 15.3029 10.9843C15.7331 12.0927 16.8723 12.8 18.04 12.8H19.25V13.5C19.25 14.8296 18.8101 15.8793 18.0947 16.5947C17.3793 17.3101 16.3296 17.75 15 17.75H12.5C12.0858 17.75 11.75 18.0858 11.75 18.5C11.75 18.9142 12.0858 19.25 12.5 19.25H15C16.6704 19.25 18.1207 18.6899 19.1553 17.6553C20.1899 16.6207 20.75 15.1704 20.75 13.5V12.62C21.3408 12.333 21.75 11.7328 21.75 11.03V8.9699C21.75 8.26711 21.3408 7.66691 20.75 7.37989V6.5C20.75 4.9753 20.2833 3.63163 19.4103 2.62C18.5395 1.6109 17.305 0.979746 15.8545 0.807111C15.5608 0.759756 15.2697 0.75 15 0.75H6C5.68789 0.75 5.38312 0.772041 5.08633 0.817136C3.64812 0.999904 2.42737 1.63519 1.56796 2.64349C0.70803 3.65239 0.25 4.98713 0.25 6.5V8.5C0.25 8.91421 0.585786 9.25 1 9.25C1.41421 9.25 1.75 8.91421 1.75 8.5V6.5C1.75 5.29286 2.11197 4.31761 2.70955 3.61651C3.30559 2.91721 4.17606 2.44312 5.28339 2.30416L5.30404 2.30128ZM16.6266 10.1089C16.5892 9.71619 16.7378 9.34641 17.0039 9.08668L17.0174 9.07321C17.2452 8.83923 17.561 8.70001 17.92 8.70001H19.9837C20.1448 8.71085 20.25 8.83703 20.25 8.9699V11.03C20.25 11.1631 20.1444 11.2895 19.9828 11.2999H18.0399C17.4781 11.2999 16.9943 10.9921 16.7651 10.5703C16.6887 10.4297 16.6406 10.2765 16.6274 10.1177L16.6275 10.1177L16.6274 10.1176L16.6266 10.1089ZM6.77028 17.0074C7.01644 16.9703 7.246 16.9103 7.45701 16.8308L8.75031 17.8555C8.01083 18.3054 7.10726 18.55 6.18158 18.55C3.95899 18.55 1.85173 17.1292 1.85156 14.8603C1.85162 14.4795 2.13538 14.1651 2.50295 14.1168C2.4421 14.0348 2.38473 13.9501 2.33106 13.8627L2.32687 13.8559L2.32691 13.8559C2.06606 13.4211 1.89582 12.9258 1.85156 12.3895L6.15604 15.8C5.11379 15.7973 4.12433 15.4944 3.3536 14.9453C3.40703 16.0617 4.50678 17.05 6.18158 17.05C6.38685 17.05 6.58337 17.0353 6.77028 17.0074ZM3.13558 9.35611C2.35594 10.0386 1.84009 11.0055 1.84009 12.11C1.84009 12.2043 1.84397 12.2975 1.85156 12.3895V14.86V14.8603V14.8604V16.8904C1.85156 19.1215 3.90139 20.7504 6.18158 20.7504C8.46466 20.7504 10.5016 19.119 10.5016 16.8904V14.8604V14.8603V14.86V12.11C10.5016 11.0079 9.98775 10.0301 9.20549 9.34557L9.20551 9.34555L9.20114 9.34179C8.41292 8.66271 7.34849 8.25 6.18158 8.25C5.73716 8.25 5.30226 8.31131 4.8899 8.42642C4.22827 8.6053 3.62904 8.92339 3.13558 9.35611ZM3.13558 9.35611L3.13879 9.35978L3.1394 9.35925L3.13619 9.35558L3.13558 9.35611ZM7.45701 16.8308L6.15604 15.8L6.17004 15.8C7.22102 15.8 8.22232 15.4987 8.99983 14.9402C8.96424 15.7428 8.39328 16.478 7.45701 16.8308ZM3.35156 12.3184C3.38207 12.5931 3.47245 12.8486 3.61109 13.0807C4.03854 13.773 4.97634 14.3 6.17004 14.3C7.36853 14.3 8.30277 13.7796 8.72815 13.0822C8.90187 12.7919 9.0001 12.465 9.0001 12.11C9.0001 11.493 8.71529 10.9173 8.20994 10.4962L8.20046 10.4883L8.20053 10.4882C7.68875 10.0473 6.97312 9.76001 6.16003 9.76001C5.595 9.76001 5.08093 9.89372 4.65038 10.1224C3.84493 10.5583 3.35156 11.3213 3.35156 12.11V12.3184Z" fill="#9197B3"/>
</svg>
