<svg width="22" height="22" viewBox="0 0 22 22" fill="none" xmlns="http://www.w3.org/2000/svg">
<path fill-rule="evenodd" clip-rule="evenodd" d="M9.34 21.0604C9.78 21.5104 10.37 21.7503 11 21.7503C11.63 21.7503 12.22 21.5104 12.66 21.0604L14.18 19.5404C14.3 19.4204 14.62 19.2904 14.78 19.2904H16.94C18.24 19.2904 19.29 18.2403 19.29 16.9403V14.7804C19.29 14.6204 19.42 14.3004 19.54 14.1804L21.06 12.6604C21.51 12.2204 21.75 11.6303 21.75 11.0003C21.75 10.3703 21.5 9.7803 21.06 9.3403L19.54 7.82028C19.42 7.70028 19.29 7.3803 19.29 7.2203V5.06039C19.29 3.76039 18.24 2.71029 16.94 2.71029H14.78C14.62 2.71029 14.3 2.58029 14.18 2.46029L12.66 0.940273C11.78 0.0602734 10.22 0.0602734 9.34 0.940273L7.82001 2.46029C7.70001 2.58029 7.38 2.71029 7.22 2.71029H5.06C3.76 2.71029 2.70999 3.76039 2.70999 5.06039V7.2203C2.70999 7.3803 2.57999 7.70028 2.45999 7.82028L0.94 9.3403C0.49 9.7803 0.25 10.3703 0.25 11.0003C0.25 11.6303 0.5 12.2204 0.94 12.6604L2.45999 14.1804C2.57999 14.3004 2.70999 14.6204 2.70999 14.7804V16.9403C2.70999 18.2403 3.76 19.2904 5.06 19.2904H7.22C7.38 19.2904 7.70001 19.4204 7.82001 19.5404L9.34 21.0604ZM4.20999 14.7804C4.20999 14.2204 3.91999 13.5203 3.51999 13.1203L2 11.6003C1.84 11.4403 1.75 11.2303 1.75 11.0003C1.75 10.7703 1.84 10.5604 2 10.4004L3.51999 8.88034C3.91999 8.48034 4.20999 7.7803 4.20999 7.2203V5.06039C4.20999 4.59039 4.59 4.21029 5.06 4.21029H7.22C7.78 4.21029 8.48001 3.92035 8.88 3.52035L10.4 2.00033C10.72 1.68033 11.28 1.68033 11.6 2.00033L13.12 3.52035C13.52 3.92035 14.22 4.21029 14.78 4.21029H16.94C17.41 4.21029 17.79 4.59039 17.79 5.06039V7.2203C17.79 7.7803 18.08 8.48034 18.48 8.88034L20 10.4004C20.16 10.5604 20.25 10.7703 20.25 11.0003C20.25 11.2303 20.16 11.4403 20 11.6003L18.48 13.1203C18.08 13.5203 17.79 14.2204 17.79 14.7804V16.9403C17.79 17.4103 17.41 17.7904 16.94 17.7904H14.78C14.22 17.7904 13.52 18.0803 13.12 18.4803L11.6 20.0003C11.28 20.3203 10.72 20.3203 10.4 20.0003L8.88 18.4803C8.48001 18.0803 7.78 17.7904 7.22 17.7904H5.06C4.59 17.7904 4.20999 17.4103 4.20999 16.9403V14.7804ZM12.9902 14C12.9902 14.55 13.4402 15 14.0002 15C14.5502 15 14.9902 14.55 14.9902 14C14.9902 13.45 14.5402 13 13.9902 13C13.4402 13 12.9902 13.45 12.9902 14ZM8.01001 9C7.45001 9 7 8.55 7 8C7 7.45 7.45 7 8 7C8.55 7 9 7.45 9 8C9 8.55 8.56001 9 8.01001 9ZM7.46945 14.5295C7.61945 14.6795 7.80945 14.7495 7.99945 14.7495C8.18945 14.7495 8.37945 14.6795 8.52945 14.5295L14.5295 8.52951C14.8195 8.23951 14.8195 7.75945 14.5295 7.46945C14.2395 7.17945 13.7595 7.17945 13.4695 7.46945L7.46945 13.4695C7.17945 13.7595 7.17945 14.2395 7.46945 14.5295Z" fill="#9197B3"/>
</svg>
